/* XPM */
static char *_493d2ebc3d84f0df1f7174a6faf5cb2RYS6NPZc5n2fbxA4[] = {
/* columns rows colors chars-per-pixel */
"40 40 27 1 ",
"  c black",
". c #4A3408",
"X c #316C14",
"o c #326818",
"O c #224922",
"+ c #397839",
"@ c #3B7D3B",
"# c #65490F",
"$ c #EE3D1F",
"% c #957756",
"& c #60C62E",
"* c #489848",
"= c #64B568",
"- c #F69F36",
"; c #F8B239",
": c #DED238",
"> c #D3DA39",
", c #AB844D",
"< c #A9896B",
"1 c #CFA67D",
"2 c #D4A774",
"3 c #FEF743",
"4 c #1A2587",
"5 c #3F4BF9",
"6 c #F9C691",
"7 c #FAD2A8",
"8 c white",
/* pixels */
"****************************************",
"****************************************",
"****************************************",
"****************  XXXXXX  **************",
"*************** XX&&&&&&XX *************",
"*************** XX&&&&&&XX *************",
"*************  X&&&&&&&&&&X  ***********",
"************ XX&&&&&&&&&&&&XX **********",
"************ XX&&&&&&&&&&&&XX **********",
"************ &&.3333333333.&& **********",
"**********  X..333333333333..X  ********",
"**********  X..333333333333..X  ********",
"*******..<...--3--33333-..333...<<.*****",
"*******..<...--3--33333-..333...<<.*****",
"*******..666.33.3333333.<<.33.6666.*****",
"*********.<<...-333;-..<66.--.<<..******",
"*********.<<...-333;-..<66.--.<<..******",
"**********..3..---...<<666<..3..********",
"**********  3.. ...%<66<.. ..3  ********",
"**********  3.. ...%<66<.. ..3  ********",
"**********  -..844.2666.448..-  ********",
"************   644876668446   **********",
"************   644876668446   **********",
"*************  #6666666666#  ***********",
"************Ooo#,,111111,,#ooO**********",
"************ &&###<<<<<<###&& **********",
"**********  &&&5XXXXXXXXXX5&&&  ********",
"**********  &&&5XXXXXXXXXX5&&&  ********",
"********* 666  #XXXXXXXXXX#  666  ******",
"********* <<655=###:333###=556<<  ******",
"********* <<655=###:333###=556<<  ******",
"**********     ===X>333X===     ********",
"*************   XX======XX   ***********",
"*************   XX======XX   ***********",
"************ $$.          .$$ **********",
"************ $$$.. +*** ..$$$ **********",
"************ $$$.. +*** ..$$$ **********",
"*************     ******     ***********",
"*************@@@@@******@@@@@***********",
"****************************************"
};
