/* XPM */
static char *_636943361400[] = {
/* columns rows colors chars-per-pixel */
"40 40 34 1 ",
"  c black",
". c #2F2F2F",
"X c #5C041B",
"o c #422C16",
"O c #563E1A",
"+ c #591621",
"@ c #704B1B",
"# c #4C4C4C",
"$ c gray31",
"% c #5F5F5F",
"& c #AB0A0A",
"* c #B20A0A",
"= c #E30E0E",
"- c #8A642C",
"; c #E34F44",
": c #E36D5F",
"> c #E0796D",
", c #3F853F",
"< c #4D8E42",
"1 c #498F49",
"2 c #489848",
"3 c #D5AF35",
"4 c #E6BD39",
"5 c #E6CE57",
"6 c gray57",
"7 c gray63",
"8 c #A4A4A4",
"9 c #AFAFAF",
"0 c #B2B2B2",
"q c #BCBCBC",
"w c gray77",
"e c gray79",
"r c gray80",
"t c white",
/* pixels */
"2222222222222222222222222222222222222222",
"2222222222222222222222222222222222222222",
"2222222222222222222222222222222222222222",
"2222222222222222222222222222222222222222",
"2222222222222222222222222222222222222222",
"2222222222222222222222222222222222222222",
"2222222222222222222222222222222222222222",
"2222222222222222--@@@<222222222222222222",
"222222222222222-55433O222222222222222222",
"222222222222222-55433O222222222222222222",
"222222222222222@@@oooo222222222222222222",
"2222222222222222#rw8#,222222222222222222",
"2222222222222222#tw8#,222222222222222222",
"2222222222222222$tw8#,222222222222222222",
"2222222222222222#tw8#,222222222222222222",
"2222222222222222#tw8#,222222222222222222",
"2222222222222222$tw8#,222222222222222222",
"2222222222222222$tw8#,222222222222222222",
"2222222222222222#rw8#,222222222222222222",
"222222222222221%rrw69.<22222222222222222",
"2222222222222+q>>rre760+2222222222222222",
"222222222222X=:tt:====&=X222222222222222",
"22222222222X==:tt:====&&=X22222222222222",
"22222222222X===::=====&&=X22222222222222",
"2222222222X=&=========&&&=X2222222222222",
"2222222222X=&&=======*&&&=X2222222222222",
"2222222222X:&&&=====**&&&=X2222222222222",
"2222222222X:&&&&&&&&&&&&&=X2222222222222",
"22222222222X:&&&&&&&&&&&=X22222222222222",
"22222222222X;:&&&&&&&&&&=X22222222222222",
"222222222222X;:&&&&&&&==X222222222222222",
"2222222222222  ::=====  2222222222222222",
"222222222222222       222222222222222222",
"2222222222222222222222222222222222222222",
"2222222222222222222222222222222222222222",
"2222222222222222222222222222222222222222",
"2222222222222222222222222222222222222222",
"2222222222222222222222222222222222222222",
"2222222222222222222222222222222222222222",
"2222222222222222222222222222222222222222"
};
